PathFileType	4	(X/Y/Z)	C:/Users/opensim2020/Desktop/walking_exp_matlab/subject02_walking14_straight_01.trc	
DataRate	CameraRate	NumFrames	NumMarkers	Units	OrigDataRate	OrigDataStartFrame	OrigNumFrames	
100.00	100.00	6	41	mm	100.00	373	131	
Frame#	Time	LFHD			RFHD			LBHD			RBHD			C7			T10			CLAV			STRN			RBAK			LSHO			LUPA			LELB			LFRM			LWRA			LWRB			LFIN			RSHO			RUPA			RELB			RFRM			RWRA			RWRB			RFIN			LASI			RASI			LPSI			RPSI			LTHI			LKNE			LTIB			LANK			LHEE			LTOE			RTHI			RKNE			RTIB			RANK			RHEE			RTOE			*39			*40			
		X1	Y1	Z1	X2	Y2	Z2	X3	Y3	Z3	X4	Y4	Z4	X5	Y5	Z5	X6	Y6	Z6	X7	Y7	Z7	X8	Y8	Z8	X9	Y9	Z9	X10	Y10	Z10	X11	Y11	Z11	X12	Y12	Z12	X13	Y13	Z13	X14	Y14	Z14	X15	Y15	Z15	X16	Y16	Z16	X17	Y17	Z17	X18	Y18	Z18	X19	Y19	Z19	X20	Y20	Z20	X21	Y21	Z21	X22	Y22	Z22	X23	Y23	Z23	X24	Y24	Z24	X25	Y25	Z25	X26	Y26	Z26	X27	Y27	Z27	X28	Y28	Z28	X29	Y29	Z29	X30	Y30	Z30	X31	Y31	Z31	X32	Y32	Z32	X33	Y33	Z33	X34	Y34	Z34	X35	Y35	Z35	X36	Y36	Z36	X37	Y37	Z37	X38	Y38	Z38	X39	Y39	Z39	X40	Y40	Z40	X41	Y41	Z41	

33	0.320	1423.65613	-467.84677	1726.50305	1566.55432	-479.57455	1708.59973	1405.41467	-598.63416	1655.35266	1545.74011	-623.44025	1636.19885	1476.77771	-664.48413	1512.93396	1487.34717	-713.13593	1235.93433	1470.53174	-526.57825	1446.40186	1480.29541	-471.07370	1275.76221	1539.21997	-723.22931	1336.32434	1300.03003	-590.83197	1489.01892	1208.06909	-577.83044	1295.64221	1181.50537	-545.68927	1157.56311	1175.08179	-461.50195	1051.93054	1214.76172	-344.08157	990.84894	1183.21631	-379.45279	960.20654	1179.33521	-323.59991	927.42389	1665.08801	-598.12244	1479.31067	1748.70654	-655.07550	1298.51257	1772.60571	-664.79108	1154.70825	1802.66638	-660.14349	1037.44470	1796.47864	-634.08234	902.55280	1823.01855	-683.29578	910.62988	1833.42261	-660.51038	842.28217	1357.67517	-497.11423	962.50800	1607.11230	-475.93713	974.13159	1444.86597	-697.37891	1017.28583	1561.06360	-694.65344	1026.52551	1302.97705	-569.89429	649.86273	1318.62402	-592.67096	468.66257	1333.68762	-750.14966	373.09836	1371.63757	-901.10297	215.29147	1433.12256	-930.59875	214.45537	1329.50159	-844.58105	76.14634	1689.02075	-503.06497	675.65674	1650.43494	-476.89090	467.26926	1664.02136	-514.16821	281.88300	1630.63379	-535.44287	89.73159	1579.30518	-574.10883	35.01398	1638.82910	-382.53262	36.71183	1505.54346	-573.68842	1794.98889	-3360.48706	2845.31812	1034.16589 
34	0.330	1424.87231	-455.91138	1729.19043	1567.96411	-467.39917	1711.13757	1406.80420	-586.48901	1658.11755	1547.08081	-611.21027	1638.54956	1478.81909	-652.16071	1515.52356	1489.72888	-700.87933	1238.55286	1471.74243	-514.34473	1449.00037	1481.18311	-459.10190	1278.13782	1542.55115	-710.64740	1339.51453	1301.54822	-579.84686	1491.29260	1210.40466	-569.21936	1297.09607	1184.69275	-539.04639	1158.51697	1176.80518	-458.23376	1050.68225	1215.29431	-341.87366	986.15802	1184.33789	-378.52734	956.72589	1180.15674	-323.27267	921.90454	1666.83411	-584.04144	1482.56677	1751.38855	-638.27344	1300.80774	1775.62073	-646.33020	1156.93994	1805.38367	-639.72113	1039.71545	1799.07507	-611.36523	905.30768	1826.09949	-660.49268	912.59692	1836.24133	-636.42041	844.74359	1357.98401	-485.20377	965.98633	1609.09082	-463.64066	976.32257	1447.71375	-685.41693	1019.92841	1563.31982	-682.67322	1028.61499	1304.57751	-550.05615	652.95892	1320.60706	-567.60107	472.53494	1337.46155	-723.80792	375.73523	1375.70837	-872.71503	215.38095	1437.35999	-902.11462	212.92635	1331.21790	-812.26208	78.68663	1690.13196	-496.21387	675.84351	1651.02771	-473.47830	466.91739	1664.32800	-511.66937	281.83075	1630.81213	-535.20660	89.99347	1579.28491	-574.23645	35.30083	1638.90369	-382.57224	36.68870	1507.20654	-561.72253	1797.47778	-3357.42529	2846.04614	1034.28027 
35	0.340	1426.28687	-443.77448	1732.04175	1569.20007	-455.16464	1713.53308	1408.06897	-574.33289	1660.65271	1548.34387	-598.96234	1640.86121	1480.76221	-639.81171	1518.00793	1492.09961	-688.59357	1241.04565	1472.89612	-502.01953	1451.51050	1482.11475	-446.92847	1280.46655	1545.56458	-697.81714	1342.22705	1302.98303	-568.90558	1493.47791	1212.87830	-560.31140	1298.47791	1187.64246	-532.92358	1159.46606	1179.17773	-454.95963	1049.58850	1216.02393	-340.13776	981.31769	1185.16052	-378.47778	953.08319	1180.85315	-324.07755	916.53809	1668.13794	-570.15509	1485.60449	1754.61255	-621.32489	1303.40466	1778.68042	-627.69897	1159.24475	1808.16614	-618.74939	1042.00623	1801.46338	-588.39240	908.31201	1828.93701	-637.50238	914.62299	1839.09778	-611.78534	847.31946	1358.42773	-473.42181	969.66235	1610.85022	-451.87234	978.32892	1450.57910	-673.48846	1022.62939	1565.73730	-670.63971	1030.64490	1306.08545	-530.20740	656.22174	1322.43066	-543.11395	476.14352	1341.30786	-697.64209	378.00021	1379.32935	-843.47882	214.17616	1440.93384	-873.15417	210.22096	1333.57629	-778.58514	80.26310	1690.93933	-489.26852	676.90924	1651.59863	-470.59290	466.73721	1664.60632	-509.67856	281.72052	1630.59998	-534.80542	89.98280	1579.17517	-574.22955	35.42934	1638.99036	-382.61508	36.65996	1508.46570	-549.91071	1799.84802	-3357.51733	2846.08057	1034.47778 
36	0.350	1427.15308	-431.83667	1734.40820	1570.20264	-442.89099	1715.78992	1409.23572	-562.20221	1663.06177	1549.50488	-586.58008	1642.93994	1482.53296	-627.34912	1520.27832	1494.41528	-676.33716	1243.40723	1473.82300	-489.69711	1453.76794	1483.04895	-434.67197	1282.69055	1548.42224	-685.13293	1344.90820	1304.39099	-557.94629	1495.44287	1214.78271	-552.30762	1299.83594	1190.50671	-527.05267	1160.45703	1181.88159	-451.95407	1047.84827	1216.73181	-339.05319	976.23822	1186.80127	-377.65616	949.07489	1181.58960	-325.75150	910.85834	1669.50818	-556.16248	1488.51660	1757.53455	-604.60559	1305.47864	1781.62170	-608.83795	1161.48315	1810.62866	-597.51349	1044.49756	1803.59119	-565.06470	911.16528	1831.91992	-613.83130	916.72882	1841.63074	-586.72528	849.97296	1358.73889	-462.01685	973.05920	1612.67126	-440.11105	980.28632	1453.44714	-661.57898	1025.22034	1568.09192	-658.45709	1032.48022	1307.29822	-511.25662	660.04694	1324.24622	-519.29608	479.64111	1345.23975	-671.50867	379.48251	1382.57092	-813.23755	211.50572	1443.97754	-843.37744	206.42587	1336.28491	-743.89868	80.59955	1691.76343	-482.21573	677.64191	1652.53064	-467.88498	466.68402	1664.83948	-508.47458	281.73480	1630.58887	-534.62445	90.08822	1579.02563	-574.23004	35.57572	1639.09607	-382.58997	36.65347	1509.94031	-537.62585	1802.10254	-3357.39160	2845.95313	1034.39539 
37	0.360	1428.02637	-419.69983	1736.63025	1571.06445	-430.52335	1717.91260	1410.25024	-550.16553	1665.02039	1550.52454	-574.15936	1644.97400	1484.24744	-615.01703	1522.59204	1496.72083	-664.19012	1245.64539	1474.70703	-477.27127	1455.84778	1483.93689	-422.38861	1284.68640	1551.07092	-672.54498	1347.50427	1305.67749	-546.96802	1497.19299	1216.89673	-543.89899	1301.15247	1193.35352	-520.81873	1161.09717	1183.83423	-449.59427	1046.39722	1217.58081	-338.43829	971.03552	1187.63184	-378.95950	945.58246	1182.13599	-328.00049	904.95471	1670.64087	-542.57513	1491.33801	1760.29858	-587.62030	1308.12000	1784.45374	-589.88843	1163.71106	1813.41907	-575.90601	1046.98206	1805.64136	-541.36877	914.38367	1834.61267	-589.93805	918.84784	1844.16736	-561.19189	852.74396	1359.38586	-450.49280	976.68378	1614.56799	-428.42145	981.97253	1456.03943	-649.60150	1027.68787	1570.36816	-646.25836	1034.26917	1308.33313	-492.02051	663.53912	1326.06677	-495.95840	483.08450	1348.80103	-645.29010	379.98297	1385.54504	-782.17462	207.51413	1446.70129	-812.48407	201.27696	1339.20166	-708.06348	79.62220	1692.35388	-475.17249	677.94983	1652.97827	-466.09540	466.34576	1665.16907	-507.95154	281.88812	1630.45203	-534.52423	90.22533	1578.78772	-574.14258	35.89484	1639.20984	-382.61008	36.65028	1511.05151	-525.53510	1804.16943	-3357.43677	2846.16333	1034.31641 
38	0.370	1428.63550	-407.96887	1738.73499	1571.75793	-418.15967	1719.87134	1411.27417	-537.94379	1666.88770	1551.59375	-561.79736	1646.72595	1485.77661	-602.51215	1524.49854	1498.98462	-651.95050	1247.67139	1475.47876	-464.90274	1457.65784	1484.88843	-410.14023	1286.48816	1553.43958	-659.80652	1349.65894	1306.93787	-535.93781	1498.65491	1218.93420	-535.20129	1302.08264	1195.87244	-515.07245	1161.69373	1185.81897	-447.54178	1044.88904	1217.94934	-338.36078	965.68842	1188.75354	-380.25739	941.67212	1182.86719	-330.91321	899.14648	1671.41077	-529.05701	1493.69958	1763.06433	-570.96405	1310.43530	1787.28284	-570.85266	1165.86633	1815.61890	-554.47791	1049.32800	1807.49426	-517.38519	917.38708	1837.27539	-565.61462	921.03479	1846.45801	-535.25458	855.59393	1360.35632	-438.72354	980.28760	1616.50708	-416.82745	983.37756	1458.37720	-637.66699	1029.92041	1572.55444	-634.15491	1035.89478	1309.19604	-473.48782	667.15179	1327.83337	-472.92880	486.45984	1351.56738	-618.98615	379.26563	1388.25427	-750.34998	202.30281	1449.65247	-780.49652	195.11880	1342.26453	-670.94061	77.62263	1693.03625	-468.31644	677.89838	1653.58826	-464.32730	466.31070	1665.47717	-507.87366	282.13266	1630.31152	-534.47101	90.42748	1578.60669	-574.10059	36.13422	1639.30530	-382.63556	36.56390	1511.80444	-513.58820	1805.92896	-3357.47803	2846.03662	1034.37341 
